<svg id="icon" xmlns="http://www.w3.org/2000/svg" viewBox="0 0 512 512"><title>saturn</title><path d="M345.636,142.682a5.586,5.586,0,0,0,6.508-9.081,155.929,155.929,0,0,0-91.373-29.31,157.842,157.842,0,0,0-35.835,4.109,5.587,5.587,0,0,0,2.541,10.881,146.643,146.643,0,0,1,33.294-3.817A144.827,144.827,0,0,1,345.636,142.682Z" id="id_101" style="fill: rgb(255, 255, 255);"></path><path d="M189.854,133.835a5.587,5.587,0,0,0-5.44-9.76,157.272,157.272,0,0,0-80.665,137.239,155.5,155.5,0,0,0,32.9,96.191,5.587,5.587,0,0,0,8.827-6.85,144.426,144.426,0,0,1-30.558-89.341A146.086,146.086,0,0,1,189.854,133.835Z" id="id_102" style="fill: rgb(255, 255, 255);"></path><path d="M75.625,381.924a5.586,5.586,0,0,0-7.249,3.143c-7.21,18.242-7.252,30.573-.13,37.695,3.547,3.547,8.409,5.326,14.645,5.326,11.222,0,26.885-5.764,47.293-17.346,28.221-16.017,62.848-41.782,100.138-74.513a5.586,5.586,0,1,0-7.37-8.4c-85.9,75.393-137.561,96.273-146.806,87.029-1.623-1.623-4.617-7.375,2.621-25.69A5.586,5.586,0,0,0,75.625,381.924Z" id="id_103" style="fill: rgb(255, 255, 255);"></path><path d="M356.015,83.277q-1.863,1.1-3.765,2.25a5.587,5.587,0,1,0,5.8,9.55q1.836-1.118,3.634-2.174a5.586,5.586,0,0,0-5.67-9.626Z" id="id_104" style="fill: rgb(255, 255, 255);"></path><path d="M276.77,277.314c-8.846,8.845-17.868,17.589-26.815,25.99a5.586,5.586,0,1,0,7.647,8.145c9.032-8.48,18.14-17.307,27.069-26.236,46.478-46.478,86.493-93.933,112.673-133.624,28.4-43.049,36.767-70.909,24.875-82.8-7.649-7.648-21.342-7.04-41.857,1.856A5.587,5.587,0,0,0,384.807,80.9c14.728-6.386,25.762-7.957,29.512-4.208,5.294,5.3,1.583,26.478-26.3,68.75C362.24,184.518,322.731,231.352,276.77,277.314Z" id="id_105" style="fill: rgb(255, 255, 255);"></path><path d="M88.616,363.169a5.583,5.583,0,0,0,4.8-2.721q.878-1.468,1.792-2.961a5.586,5.586,0,0,0-9.528-5.835q-.945,1.543-1.853,3.062a5.59,5.59,0,0,0,4.789,8.455Z" id="id_106" style="fill: rgb(255, 255, 255);"></path><path d="M320.188,94a5.569,5.569,0,0,0,3.069-.922c5.043-3.325,10.093-6.539,15.013-9.551A5.587,5.587,0,0,0,332.432,74c-5.023,3.078-10.179,6.358-15.324,9.75A5.587,5.587,0,0,0,320.188,94Z" id="id_107" style="fill: rgb(255, 255, 255);"></path><path d="M318.057,309.979q-1.453,1.469-2.917,2.94a5.586,5.586,0,1,0,7.917,7.883q1.476-1.482,2.945-2.967a5.587,5.587,0,0,0-7.945-7.856Z" id="id_108" style="fill: rgb(255, 255, 255);"></path><path d="M465.917,45.59c-18.091-18.09-54.64-13.709-105.7,12.676a5.587,5.587,0,0,0,5.13,9.926c44.989-23.246,78.768-28.6,92.671-14.7,12.733,12.735,9.17,42.9-9.775,82.752-19.857,41.771-55.213,91.936-99.555,141.253a5.587,5.587,0,0,0,8.308,7.471c17.021-18.93,32.427-37.564,46.095-55.606a146.513,146.513,0,0,1,3.532,31.955c0,80.422-65.428,145.85-145.85,145.85a146.5,146.5,0,0,1-32.068-3.549c20.625-15.574,41.676-33.142,62.5-52.238a5.586,5.586,0,0,0-7.551-8.235c-50.4,46.212-101.985,83.268-145.259,104.343C97.146,467.576,66,471.612,52.948,458.56a22.819,22.819,0,0,1-4.576-6.66,5.587,5.587,0,1,0-10.154,4.662,33.94,33.94,0,0,0,6.829,9.9c7.278,7.279,17.6,10.9,30.687,10.9,17.7,0,40.448-6.632,67.553-19.833,22.838-11.122,47.9-26.566,73.837-45.356a157.2,157.2,0,0,0,43.647,6.162c86.582,0,157.022-70.44,157.022-157.022a157.269,157.269,0,0,0-5.959-42.987c-.049-.173-.13-.326-.194-.491C469.623,138.04,491.858,71.532,465.917,45.59Z" id="id_109" style="fill: rgb(255, 255, 255);"></path><path d="M40.945,428.036a5.589,5.589,0,0,0,5.506-4.684c4.319-26.337,21.59-63.051,48.629-103.38a5.586,5.586,0,0,0-9.28-6.222c-28.316,42.233-45.735,79.508-50.375,107.794a5.587,5.587,0,0,0,4.609,6.417A5.645,5.645,0,0,0,40.945,428.036Z" id="id_110" style="fill: rgb(255, 255, 255);"></path></svg>